<?xml version="1.0" encoding="iso-8859-1"?>
<!-- Generator: Adobe Illustrator 21.1.0, SVG Export Plug-In . SVG Version: 6.00 Build 0)  -->
<svg xmlns="http://www.w3.org/2000/svg" viewBox="183 373 48 48"><g><g><path d="M207,421c-0.137,0-0.272-0.028-0.401-0.083c-13.039-5.645-21.14-16.314-21.14-27.845c0-2.96,0.016-5.923,0.034-8.887 c0.018-2.961,0.036-5.923,0.036-8.883c0-0.422,0.264-0.801,0.66-0.946c0.396-0.146,0.842-0.029,1.116,0.293 c1.695,1.995,5.242,3.285,9.036,3.285c4.524,0,8.619-1.844,9.736-4.384c0.323-0.733,1.523-0.733,1.846,0 c1.117,2.54,5.212,4.384,9.737,4.384c3.793,0,7.339-1.289,9.035-3.285c0.275-0.322,0.719-0.439,1.116-0.293 c0.396,0.146,0.66,0.524,0.66,0.946c0,2.96,0.018,5.922,0.036,8.883c0.018,2.964,0.034,5.927,0.034,8.887 c0,11.531-8.101,22.2-21.14,27.845C207.272,420.972,207.137,421,207,421z M187.542,377.525c-0.005,2.224-0.019,4.448-0.031,6.672 c-0.018,2.959-0.036,5.919-0.036,8.875c0,10.597,7.471,20.458,19.525,25.819c12.055-5.362,19.525-15.223,19.525-25.819 c0-2.956-0.018-5.915-0.036-8.875c-0.012-2.224-0.026-4.448-0.031-6.672c-2.24,1.527-5.409,2.425-8.798,2.425 c-4.598,0-8.626-1.594-10.66-4.096c-2.034,2.501-6.061,4.096-10.659,4.096C192.95,379.95,189.781,379.052,187.542,377.525z"/></g><g><path d="M205.354,406.6c-0.293,0-0.572-0.127-0.763-0.349l-7.95-9.21c-0.364-0.422-0.317-1.058,0.104-1.422 c0.422-0.364,1.057-0.317,1.422,0.104l7.077,8.198l10.51-16.062c0.305-0.466,0.926-0.599,1.396-0.292 c0.465,0.305,0.596,0.93,0.291,1.395l-11.243,17.182c-0.174,0.265-0.461,0.433-0.777,0.454 C205.399,406.598,205.376,406.6,205.354,406.6z"/></g></g></svg>
