<?xml version="1.0" encoding="iso-8859-1"?>
<!-- Generator: Adobe Illustrator 21.1.0, SVG Export Plug-In . SVG Version: 6.00 Build 0)  -->
<svg xmlns="http://www.w3.org/2000/svg" viewBox="183 373 48 48">
<g>
	<path d="M209.41,400.179h-7.915l5.911-3.948c0.476-0.317,0.603-0.96,0.286-1.435c-0.316-0.474-0.96-0.603-1.434-0.286l-8.798,5.876
		c-0.288,0.192-0.46,0.514-0.46,0.86c0,0.346,0.173,0.669,0.459,0.86l8.798,5.877c0.177,0.118,0.378,0.175,0.574,0.175
		c0.334,0,0.662-0.161,0.862-0.46c0.317-0.475,0.189-1.118-0.285-1.435l-6.011-4.014h8.013c3.688,0,6.689,2.443,6.689,5.446v0.15
		c0,3.003-3,5.445-6.689,5.445h-9.839c-0.571,0-1.034,0.464-1.034,1.035c0,0.571,0.463,1.035,1.034,1.035h9.839
		c4.829,0,8.757-3.372,8.757-7.515v-0.15C218.168,403.551,214.239,400.179,209.41,400.179z"/>
	<path d="M230.686,384.407c0.086-0.279,0.065-0.589-0.104-0.855l-5.654-8.89c-0.61-0.964-2.502-1.662-3.479-1.662h-28.898
		c-0.975,0-2.866,0.697-3.479,1.661l-5.653,8.891c-0.169,0.266-0.19,0.575-0.105,0.854c-0.159,0.324-0.257,0.684-0.257,1.07v33.082
		c0,1.347,1.095,2.443,2.442,2.443h43.003c1.346,0,2.441-1.096,2.441-2.443v-33.082C230.943,385.09,230.845,384.731,230.686,384.407
		z M223.182,375.771l4.618,7.261h-14.947l-1.299-7.962h9.894C221.922,375.07,222.984,375.535,223.182,375.771z M203.068,385.102
		h7.863v4.731h-7.863V385.102z M203.244,383.032l1.3-7.962h4.913l1.3,7.962H203.244z M190.808,375.786
		c0.211-0.26,1.252-0.716,1.743-0.716h9.894l-1.299,7.962h-14.946L190.808,375.786z M228.874,418.557
		c0,0.202-0.171,0.373-0.372,0.373h-43.003c-0.202,0-0.373-0.171-0.373-0.373v-33.082c0-0.202,0.171-0.373,0.373-0.373H201v5.766
		c0,0.571,0.463,1.035,1.034,1.035h9.932c0.571,0,1.034-0.464,1.034-1.035v-5.766h15.502c0.201,0,0.372,0.171,0.372,0.373V418.557z"
		/>
</g>
</svg>
