<?xml version="1.0" encoding="iso-8859-1"?>
<!-- Generator: Adobe Illustrator 21.1.0, SVG Export Plug-In . SVG Version: 6.00 Build 0)  -->
<svg xmlns="http://www.w3.org/2000/svg" viewBox="183 373 48 48">
<g>
	<path d="M229.055,397.815l-3.692-5.126c-0.797-1.108-2.938-2.377-4.458-2.409l-6.157,0.085v-12.618
		c0-1.661-1.351-3.012-3.012-3.012h-25.726c-1.661,0-3.011,1.351-3.011,3.012v20.345c0,0.051,0.012,0.098,0.015,0.147
		c-0.002,0.026-0.015,0.048-0.015,0.074v11.315c0,1.661,1.35,3.012,3.011,3.012h1.126c0.462,0,0.868-0.307,0.993-0.751
		c0.829-2.927,3.536-4.972,6.584-4.972s5.755,2.045,6.585,4.972c0.126,0.444,0.531,0.751,0.993,0.751h9.417
		c0.462,0,0.867-0.307,0.993-0.751c0.83-2.927,3.538-4.972,6.585-4.972s5.755,2.045,6.584,4.972
		c0.125,0.444,0.531,0.751,0.993,0.751h1.126c1.661,0,3.011-1.351,3.011-3.012v-5.78C231,401.731,230.292,399.532,229.055,397.815z
		 M185.064,377.747c0-0.522,0.424-0.948,0.947-0.948h25.726c0.514,0,0.948,0.434,0.948,0.948v13.665v6.68
		c0,0.513-0.434,0.947-0.948,0.947h-25.726c-0.513,0-0.947-0.434-0.947-0.947V377.747z M228.936,409.628
		c0,0.514-0.434,0.948-0.947,0.948h-0.382c-1.304-3.406-4.62-5.722-8.32-5.722c-3.7,0-7.016,2.316-8.322,5.722h-7.93
		c-1.305-3.406-4.622-5.722-8.322-5.722s-7.016,2.316-8.32,5.722h-0.382c-0.513,0-0.947-0.434-0.947-0.948v-8.455
		c0.298,0.099,0.616,0.153,0.947,0.153h25.726c1.661,0,3.012-1.351,3.012-3.012v-0.221v-5.662l6.183-0.085c0.004,0,0.007,0,0.011,0
		c0.688,0,2.27,0.894,2.745,1.552l3.692,5.126c0.989,1.372,1.556,3.132,1.556,4.826V409.628z"/>
	<path d="M219.287,409.071c-2.811,0-5.098,2.286-5.098,5.096s2.287,5.098,5.098,5.098c2.811,0,5.098-2.287,5.098-5.098
		S222.097,409.071,219.287,409.071z M219.287,417.201c-1.672,0-3.033-1.361-3.033-3.033s1.361-3.032,3.033-3.032
		c1.672,0,3.033,1.36,3.033,3.032S220.959,417.201,219.287,417.201z"/>
	<path d="M194.713,409.071c-2.811,0-5.096,2.286-5.096,5.096s2.286,5.098,5.096,5.098s5.098-2.287,5.098-5.098
		S197.524,409.071,194.713,409.071z M194.713,417.201c-1.672,0-3.032-1.361-3.032-3.033s1.36-3.032,3.032-3.032
		c1.672,0,3.033,1.36,3.033,3.032S196.386,417.201,194.713,417.201z"/>
</g>
</svg>
