<?xml version="1.0" encoding="iso-8859-1"?>
<!-- Generator: Adobe Illustrator 21.1.0, SVG Export Plug-In . SVG Version: 6.00 Build 0)  -->
<svg xmlns="http://www.w3.org/2000/svg" viewBox="183 373 48 48">
<g>
	<path d="M226.232,374.505h-38.465c-2.537,0-4.6,2.064-4.6,4.601v3.945v5.848v14.7c0,2.537,2.064,4.602,4.6,4.602h19.675v6.141
		c0,2.842,2.313,5.155,5.154,5.155h7.725c2.842,0,5.154-2.313,5.154-5.155v-6.141h0.756c2.537,0,4.6-2.064,4.6-4.602v-14.7v-5.848
		v-3.945C230.833,376.569,228.769,374.505,226.232,374.505z M187.768,376.522h38.465c1.425,0,2.585,1.159,2.585,2.584v2.936h-43.634
		v-2.936C185.183,377.681,186.343,376.522,187.768,376.522z M228.817,387.889h-43.634v-3.831h43.634V387.889z M223.46,414.34
		c0,1.731-1.409,3.138-3.139,3.138h-7.725c-1.73,0-3.139-1.407-3.139-3.138v-10.245c0-0.128,0.108-0.236,0.237-0.236h13.529
		c0.126,0,0.237,0.11,0.237,0.236V414.34z M220.78,401.842h-8.642v-3.003c0-1.912,1.556-3.467,3.468-3.467h1.705
		c1.912,0,3.468,1.555,3.468,3.467V401.842z M226.232,406.182h-0.756v-2.087c0-1.242-1.011-2.253-2.252-2.253h-0.428v-3.003
		c0-3.024-2.46-5.484-5.484-5.484h-1.705c-3.024,0-5.484,2.46-5.484,5.484v3.003h-0.428c-1.242,0-2.252,1.011-2.252,2.253v2.087
		h-19.675c-1.425,0-2.585-1.159-2.585-2.585v-13.691h43.634v13.691C228.817,405.023,227.657,406.182,226.232,406.182z"/>
	<path d="M193.309,400.668h-4.062c-0.557,0-1.008,0.452-1.008,1.009c0,0.557,0.451,1.009,1.008,1.009h4.062
		c0.557,0,1.008-0.452,1.008-1.009C194.317,401.12,193.865,400.668,193.309,400.668z"/>
	<path d="M203.303,400.668h-5.052c-0.557,0-1.008,0.452-1.008,1.009c0,0.557,0.451,1.009,1.008,1.009h5.052
		c0.557,0,1.008-0.452,1.008-1.009C204.311,401.12,203.859,400.668,203.303,400.668z"/>
	<path d="M216.459,406.844c-1.182,0-2.142,0.961-2.142,2.143c0,0.817,0.459,1.529,1.134,1.89v2.482c0,0.557,0.451,1.009,1.008,1.009
		c0.557,0,1.008-0.452,1.008-1.009v-2.481c0.676-0.362,1.135-1.074,1.135-1.891C218.602,407.806,217.64,406.844,216.459,406.844z"/>
</g>
</svg>
